<svg xmlns="http://www.w3.org/2000/svg" xmlns:xlink="http://www.w3.org/1999/xlink" width="300" zoomAndPan="magnify" viewBox="0 0 224.87999 225" height="300" preserveAspectRatio="xMidYMid meet" version="1.0"><defs><g/><clipPath id="5dcdf68545"><path d="M 118 1.042969 L 159 1.042969 L 159 56 L 118 56 Z M 118 1.042969 " clip-rule="nonzero"/></clipPath><clipPath id="694eddf843"><path d="M 0.21875 0.234375 L 7 0.234375 L 7 7 L 0.21875 7 Z M 0.21875 0.234375 " clip-rule="nonzero"/></clipPath><clipPath id="8d91ead4c3"><rect x="0" width="9" y="0" height="9"/></clipPath></defs><path fill="#4a6fa5" d="M 75.019531 143.851562 C 81.089844 137.230469 87.15625 130.613281 93.410156 123.808594 C 98.742188 128.957031 103.523438 133.738281 108.117188 138.519531 C 124.484375 155.066406 140.847656 171.433594 157.214844 187.980469 C 157.949219 188.714844 158.867188 190.003906 158.867188 191.105469 C 159.050781 201.035156 158.867188 211.148438 158.867188 221.078125 C 158.867188 221.628906 158.683594 221.996094 158.5 222.550781 C 154.457031 223.285156 151.699219 221.078125 149.308594 218.6875 C 141.585938 210.78125 133.675781 203.058594 125.953125 195.152344 C 109.40625 178.417969 92.671875 161.6875 76.125 145.136719 C 75.574219 144.402344 75.019531 143.851562 75.019531 143.851562 Z M 75.019531 143.851562 " fill-opacity="1" fill-rule="nonzero"/><path fill="#4a6fa5" d="M 131.65625 100.457031 C 110.140625 78.757812 66.5625 34.078125 66.5625 32.972656 C 66.378906 26.171875 66.5625 13.484375 66.746094 6.679688 C 66.746094 3.554688 70.242188 1.714844 72.816406 3.554688 C 74.101562 4.472656 75.207031 5.390625 76.308594 6.679688 C 90.097656 20.652344 149.125 80.597656 149.859375 81.332031 C 143.605469 87.769531 137.722656 94.019531 131.65625 100.457031 Z M 131.65625 100.457031 " fill-opacity="1" fill-rule="nonzero"/><path fill="#4a6fa5" d="M 126.691406 130.796875 C 140.664062 117.003906 154.457031 103.582031 168.246094 89.976562 C 175.050781 83.355469 181.851562 76.734375 188.472656 70.117188 C 189.945312 68.644531 191.597656 67.910156 193.804688 68.09375 C 202.445312 68.277344 211.273438 68.09375 219.914062 68.09375 C 221.019531 68.09375 221.9375 68.09375 223.226562 68.277344 C 223.59375 72.324219 221.9375 75.082031 219.363281 77.65625 C 209.984375 86.847656 200.609375 96.042969 191.230469 105.238281 C 176.519531 119.578125 161.996094 133.921875 147.285156 148.265625 C 146.734375 148.816406 146.179688 149.183594 145.996094 149.550781 C 139.5625 143.117188 133.308594 137.046875 126.691406 130.796875 Z M 126.691406 130.796875 " fill-opacity="1" fill-rule="nonzero"/><path fill="#4a6fa5" d="M 3.492188 156.90625 C 1.839844 156.90625 0.734375 155.433594 1.101562 153.78125 C 1.65625 151.390625 3.308594 149.550781 4.964844 147.710938 C 15.078125 137.78125 61.597656 92.367188 74.652344 79.496094 C 76.125 78.023438 77.78125 76.550781 79.066406 75.449219 C 85.6875 81.699219 92.121094 87.769531 98.558594 93.835938 C 89.546875 102.664062 48.359375 142.929688 36.222656 154.515625 C 34.9375 155.617188 32.730469 156.722656 30.890625 156.722656 C 23.71875 156.90625 9.378906 156.90625 3.492188 156.90625 Z M 3.492188 156.90625 " fill-opacity="1" fill-rule="nonzero"/><g clip-path="url(#5dcdf68545)"><path fill="#4a6fa5" d="M 137.355469 55.589844 C 131.289062 49.339844 125.21875 43.085938 118.785156 36.46875 C 120.4375 34.8125 141.585938 13.851562 150.042969 5.390625 C 151.882812 3.554688 153.902344 2.082031 156.476562 1.898438 C 157.765625 1.714844 158.683594 2.816406 158.683594 3.921875 C 158.867188 9.4375 158.867188 24.699219 158.867188 32.421875 C 158.867188 33.523438 158.5 34.8125 157.949219 35.546875 C 151.328125 42.167969 144.710938 48.601562 138.089844 55.039062 C 137.90625 55.40625 137.539062 55.589844 137.355469 55.589844 Z M 137.355469 55.589844 " fill-opacity="1" fill-rule="nonzero"/></g><path fill="#4a6fa5" d="M 87.707031 168.859375 C 94.144531 174.742188 100.578125 180.441406 107.566406 186.878906 C 107.933594 187.246094 104.074219 190.554688 102.417969 192.027344 C 93.410156 200.851562 84.398438 209.863281 75.390625 218.871094 C 73.550781 220.710938 71.710938 222.183594 69.136719 222.550781 C 67.667969 222.734375 66.378906 221.628906 66.378906 220.34375 C 66.378906 218.503906 66.378906 216.664062 66.378906 214.828125 C 66.378906 207.289062 66.378906 199.933594 66.378906 192.394531 C 66.378906 191.289062 66.5625 189.636719 67.296875 188.898438 C 74.285156 181.914062 81.273438 175.109375 87.707031 168.859375 Z M 87.707031 168.859375 " fill-opacity="1" fill-rule="nonzero"/><path fill="#4a6fa5" d="M 53.140625 86.480469 C 45.96875 94.019531 40.085938 100.273438 33.832031 106.890625 C 32.914062 105.972656 2.207031 75.082031 1.472656 73.976562 C 0 71.21875 2.023438 67.910156 4.964844 67.910156 C 5.332031 67.910156 5.699219 67.910156 6.066406 67.910156 C 14.34375 67.910156 22.433594 67.910156 30.707031 67.910156 C 31.808594 67.910156 33.097656 68.09375 33.832031 68.644531 C 40.636719 74.714844 47.070312 80.78125 53.140625 86.480469 Z M 53.140625 86.480469 " fill-opacity="1" fill-rule="nonzero"/><path fill="#4a6fa5" d="M 171.738281 137.78125 C 178.910156 130.242188 184.796875 123.992188 191.046875 117.371094 C 191.964844 118.292969 222.671875 149.183594 223.410156 150.285156 C 224.878906 153.042969 222.855469 156.355469 219.914062 156.355469 C 219.546875 156.355469 219.179688 156.355469 218.8125 156.355469 C 210.539062 156.355469 202.445312 156.355469 194.171875 156.355469 C 193.070312 156.355469 191.78125 156.171875 191.046875 155.617188 C 184.242188 149.550781 177.808594 143.484375 171.738281 137.78125 Z M 171.738281 137.78125 " fill-opacity="1" fill-rule="nonzero"/><path fill="#4a6fa5" d="M 7.539062 176.398438 C 4.964844 176.398438 4.046875 178.050781 4.78125 180.074219 C 5.515625 182.28125 37.695312 214.460938 39.902344 215.011719 C 41.921875 215.5625 43.210938 214.273438 43.210938 212.070312 C 43.210938 208.023438 43.210938 192.578125 43.210938 188.714844 C 43.210938 188.53125 32.546875 176.398438 32.546875 176.398438 C 32.363281 176.398438 15.628906 176.398438 7.539062 176.398438 Z M 7.539062 176.398438 " fill-opacity="1" fill-rule="nonzero"/><path fill="#4a6fa5" d="M 182.222656 212.621094 C 182.222656 215.195312 183.875 216.113281 185.898438 215.378906 C 188.105469 214.644531 220.28125 182.464844 220.835938 180.257812 C 221.386719 178.234375 220.097656 176.949219 217.894531 176.949219 C 213.847656 176.949219 198.402344 176.949219 194.539062 176.949219 C 194.355469 176.949219 182.222656 187.613281 182.222656 187.613281 C 182.40625 187.980469 182.40625 204.53125 182.222656 212.621094 Z M 182.222656 212.621094 " fill-opacity="1" fill-rule="nonzero"/><path fill="#4a6fa5" d="M 217.894531 47.683594 C 220.46875 47.683594 221.386719 46.027344 220.652344 44.007812 C 219.914062 41.800781 187.738281 9.621094 185.53125 9.070312 C 183.507812 8.519531 182.222656 9.804688 182.222656 12.011719 C 182.222656 16.058594 182.222656 31.503906 182.222656 35.363281 C 182.222656 35.546875 192.886719 47.683594 192.886719 47.683594 C 193.070312 47.5 209.800781 47.683594 217.894531 47.683594 Z M 217.894531 47.683594 " fill-opacity="1" fill-rule="nonzero"/><path fill="#4a6fa5" d="M 43.210938 13.300781 C 43.210938 10.726562 41.554688 9.804688 39.535156 10.539062 C 37.328125 11.277344 5.148438 43.453125 4.597656 45.660156 C 4.046875 47.683594 5.332031 48.972656 7.539062 48.972656 C 11.585938 48.972656 27.03125 48.972656 30.890625 48.972656 C 31.074219 48.972656 43.210938 38.304688 43.210938 38.304688 C 43.210938 37.9375 43.210938 21.390625 43.210938 13.300781 Z M 43.210938 13.300781 " fill-opacity="1" fill-rule="nonzero"/><g transform="matrix(1, 0, 0, 1, 113, 49)"><g clip-path="url(#8d91ead4c3)"><g clip-path="url(#694eddf843)"><g fill="#4a6fa5" fill-opacity="1"><g transform="translate(0.713815, 1.131224)"><g><path d="M 0.765625 -0.265625 C 0.804688 -0.222656 0.835938 -0.171875 0.859375 -0.109375 C 0.878906 -0.046875 0.878906 0.0078125 0.859375 0.0625 C 0.835938 0.113281 0.796875 0.171875 0.734375 0.234375 C 0.679688 0.285156 0.628906 0.320312 0.578125 0.34375 C 0.523438 0.363281 0.46875 0.363281 0.40625 0.34375 C 0.34375 0.320312 0.289062 0.289062 0.25 0.25 L 0.078125 0.078125 L 0.59375 -0.4375 Z M 0.296875 0.171875 C 0.335938 0.210938 0.375 0.238281 0.40625 0.25 C 0.445312 0.269531 0.488281 0.273438 0.53125 0.265625 C 0.570312 0.253906 0.617188 0.222656 0.671875 0.171875 C 0.722656 0.117188 0.753906 0.0664062 0.765625 0.015625 C 0.785156 -0.0234375 0.785156 -0.0625 0.765625 -0.09375 C 0.753906 -0.132812 0.726562 -0.175781 0.6875 -0.21875 L 0.578125 -0.328125 L 0.1875 0.0625 Z M 0.296875 0.171875 "/></g></g><g transform="translate(1.250081, 1.66749)"><g><path d="M 0.53125 0.1875 L 0.265625 -0.078125 C 0.222656 -0.0351562 0.203125 0.00390625 0.203125 0.046875 C 0.210938 0.0976562 0.234375 0.140625 0.265625 0.171875 C 0.296875 0.203125 0.320312 0.21875 0.34375 0.21875 C 0.375 0.226562 0.394531 0.226562 0.40625 0.21875 L 0.421875 0.234375 L 0.4375 0.28125 C 0.414062 0.300781 0.378906 0.304688 0.328125 0.296875 C 0.285156 0.296875 0.242188 0.273438 0.203125 0.234375 C 0.171875 0.203125 0.148438 0.164062 0.140625 0.125 C 0.128906 0.0820312 0.128906 0.0390625 0.140625 0 C 0.160156 -0.0507812 0.191406 -0.0976562 0.234375 -0.140625 C 0.273438 -0.179688 0.316406 -0.207031 0.359375 -0.21875 C 0.410156 -0.238281 0.457031 -0.242188 0.5 -0.234375 C 0.539062 -0.222656 0.578125 -0.203125 0.609375 -0.171875 C 0.648438 -0.128906 0.671875 -0.078125 0.671875 -0.015625 C 0.679688 0.0351562 0.65625 0.09375 0.59375 0.15625 C 0.570312 0.175781 0.554688 0.191406 0.546875 0.203125 Z M 0.53125 0.09375 C 0.570312 0.0507812 0.59375 0.015625 0.59375 -0.015625 C 0.601562 -0.0546875 0.59375 -0.09375 0.5625 -0.125 C 0.53125 -0.15625 0.492188 -0.171875 0.453125 -0.171875 C 0.410156 -0.171875 0.363281 -0.15625 0.3125 -0.125 Z M 0.53125 0.09375 "/></g></g><g transform="translate(1.655903, 2.073313)"><g><path d="M 0.546875 -0.359375 C 0.535156 -0.367188 0.53125 -0.378906 0.53125 -0.390625 C 0.53125 -0.398438 0.539062 -0.414062 0.5625 -0.4375 C 0.570312 -0.445312 0.582031 -0.453125 0.59375 -0.453125 C 0.601562 -0.453125 0.613281 -0.445312 0.625 -0.4375 C 0.632812 -0.425781 0.640625 -0.414062 0.640625 -0.40625 C 0.640625 -0.394531 0.632812 -0.382812 0.625 -0.375 C 0.601562 -0.351562 0.585938 -0.34375 0.578125 -0.34375 C 0.566406 -0.34375 0.554688 -0.347656 0.546875 -0.359375 Z M 0.0625 0.0625 L 0.4375 -0.3125 L 0.5 -0.25 L 0.125 0.125 Z M 0.0625 0.0625 "/></g></g><g transform="translate(1.844666, 2.262076)"><g><path d="M 0.0625 0.0625 L 0.4375 -0.3125 L 0.5 -0.25 L 0.4375 -0.1875 C 0.476562 -0.207031 0.515625 -0.210938 0.546875 -0.203125 C 0.578125 -0.191406 0.609375 -0.171875 0.640625 -0.140625 C 0.679688 -0.0976562 0.695312 -0.0507812 0.6875 0 C 0.6875 0.0390625 0.664062 0.0820312 0.625 0.125 L 0.375 0.375 L 0.3125 0.3125 L 0.5625 0.0625 C 0.582031 0.0390625 0.597656 0.0234375 0.609375 0.015625 C 0.617188 0.00390625 0.617188 -0.0078125 0.609375 -0.03125 C 0.609375 -0.0625 0.597656 -0.0859375 0.578125 -0.109375 C 0.546875 -0.140625 0.507812 -0.15625 0.46875 -0.15625 C 0.425781 -0.15625 0.378906 -0.128906 0.328125 -0.078125 L 0.125 0.125 Z M 0.0625 0.0625 "/></g></g><g transform="translate(2.282927, 2.700337)"><g/></g><g transform="translate(2.456161, 2.873571)"><g><path d="M 0.453125 0.453125 L 0.390625 0.390625 L 0.484375 0.203125 L 0.265625 -0.015625 L 0.078125 0.078125 L 0.015625 0.015625 L 0.71875 -0.3125 L 0.796875 -0.234375 Z M 0.671875 -0.203125 L 0.328125 -0.046875 L 0.515625 0.140625 L 0.6875 -0.1875 Z M 0.671875 -0.203125 "/></g></g><g transform="translate(2.930312, 3.347721)"><g><path d="M 0.234375 0.265625 C 0.203125 0.234375 0.179688 0.203125 0.171875 0.171875 C 0.160156 0.140625 0.164062 0.101562 0.1875 0.0625 L 0.125 0.125 L 0.0625 0.0625 L 0.59375 -0.46875 L 0.65625 -0.40625 L 0.4375 -0.1875 C 0.519531 -0.207031 0.585938 -0.191406 0.640625 -0.140625 C 0.671875 -0.109375 0.691406 -0.0703125 0.703125 -0.03125 C 0.710938 0.0078125 0.707031 0.0507812 0.6875 0.09375 C 0.664062 0.132812 0.632812 0.175781 0.59375 0.21875 C 0.550781 0.257812 0.507812 0.289062 0.46875 0.3125 C 0.425781 0.332031 0.382812 0.335938 0.34375 0.328125 C 0.300781 0.316406 0.265625 0.296875 0.234375 0.265625 Z M 0.296875 0.203125 C 0.367188 0.273438 0.453125 0.265625 0.546875 0.171875 C 0.597656 0.117188 0.625 0.0664062 0.625 0.015625 C 0.632812 -0.0234375 0.625 -0.0625 0.59375 -0.09375 C 0.550781 -0.132812 0.503906 -0.148438 0.453125 -0.140625 C 0.410156 -0.140625 0.363281 -0.113281 0.3125 -0.0625 C 0.269531 -0.0195312 0.242188 0.0195312 0.234375 0.0625 C 0.234375 0.113281 0.253906 0.160156 0.296875 0.203125 Z M 0.296875 0.203125 "/></g></g><g transform="translate(3.384447, 3.801856)"><g><path d="M 0.15625 0.1875 C 0.125 0.15625 0.101562 0.125 0.09375 0.09375 C 0.09375 0.0703125 0.0859375 0.046875 0.078125 0.015625 C 0.078125 -0.00390625 0.078125 -0.0234375 0.078125 -0.046875 L 0.15625 -0.03125 C 0.164062 0 0.171875 0.0234375 0.171875 0.046875 C 0.171875 0.0664062 0.1875 0.09375 0.21875 0.125 C 0.25 0.15625 0.273438 0.171875 0.296875 0.171875 C 0.328125 0.179688 0.351562 0.175781 0.375 0.15625 C 0.382812 0.144531 0.390625 0.128906 0.390625 0.109375 C 0.390625 0.0859375 0.382812 0.0625 0.375 0.03125 L 0.3125 -0.03125 C 0.289062 -0.0703125 0.28125 -0.109375 0.28125 -0.140625 C 0.289062 -0.179688 0.304688 -0.210938 0.328125 -0.234375 C 0.347656 -0.253906 0.367188 -0.265625 0.390625 -0.265625 C 0.421875 -0.273438 0.445312 -0.273438 0.46875 -0.265625 C 0.5 -0.265625 0.53125 -0.25 0.5625 -0.21875 C 0.59375 -0.1875 0.613281 -0.15625 0.625 -0.125 C 0.632812 -0.09375 0.632812 -0.0625 0.625 -0.03125 L 0.578125 -0.015625 L 0.5625 -0.03125 C 0.5625 -0.0507812 0.554688 -0.0703125 0.546875 -0.09375 C 0.546875 -0.125 0.535156 -0.148438 0.515625 -0.171875 C 0.484375 -0.203125 0.457031 -0.21875 0.4375 -0.21875 C 0.414062 -0.21875 0.394531 -0.207031 0.375 -0.1875 C 0.363281 -0.175781 0.359375 -0.160156 0.359375 -0.140625 C 0.359375 -0.117188 0.367188 -0.0976562 0.390625 -0.078125 L 0.421875 0.015625 C 0.460938 0.0546875 0.476562 0.09375 0.46875 0.125 C 0.457031 0.15625 0.441406 0.179688 0.421875 0.203125 C 0.398438 0.222656 0.375 0.238281 0.34375 0.25 C 0.3125 0.257812 0.28125 0.257812 0.25 0.25 C 0.21875 0.238281 0.1875 0.21875 0.15625 0.1875 Z M 0.15625 0.1875 "/></g></g><g transform="translate(3.736436, 4.153846)"><g><path d="M 0.203125 0.234375 C 0.171875 0.203125 0.148438 0.160156 0.140625 0.109375 C 0.140625 0.0664062 0.144531 0.0234375 0.15625 -0.015625 C 0.164062 -0.0546875 0.191406 -0.0976562 0.234375 -0.140625 C 0.273438 -0.179688 0.316406 -0.207031 0.359375 -0.21875 C 0.410156 -0.238281 0.457031 -0.242188 0.5 -0.234375 C 0.539062 -0.222656 0.578125 -0.203125 0.609375 -0.171875 C 0.648438 -0.128906 0.675781 -0.0859375 0.6875 -0.046875 C 0.695312 -0.00390625 0.691406 0.0234375 0.671875 0.046875 L 0.609375 0.046875 L 0.59375 0.03125 C 0.613281 0.0078125 0.617188 -0.015625 0.609375 -0.046875 C 0.597656 -0.078125 0.582031 -0.101562 0.5625 -0.125 C 0.539062 -0.144531 0.515625 -0.160156 0.484375 -0.171875 C 0.453125 -0.179688 0.421875 -0.179688 0.390625 -0.171875 C 0.359375 -0.160156 0.320312 -0.132812 0.28125 -0.09375 C 0.25 -0.0625 0.226562 -0.03125 0.21875 0 C 0.207031 0.03125 0.207031 0.0625 0.21875 0.09375 C 0.226562 0.125 0.242188 0.148438 0.265625 0.171875 C 0.285156 0.191406 0.3125 0.207031 0.34375 0.21875 C 0.375 0.226562 0.40625 0.21875 0.4375 0.1875 L 0.453125 0.203125 L 0.453125 0.265625 C 0.421875 0.296875 0.378906 0.304688 0.328125 0.296875 C 0.285156 0.296875 0.242188 0.273438 0.203125 0.234375 Z M 0.203125 0.234375 "/></g></g><g transform="translate(4.1288, 4.54621)"><g><path d="M 0.0625 0.0625 L 0.59375 -0.46875 L 0.65625 -0.40625 L 0.4375 -0.1875 C 0.519531 -0.207031 0.585938 -0.191406 0.640625 -0.140625 C 0.679688 -0.0976562 0.695312 -0.0507812 0.6875 0 C 0.6875 0.0390625 0.664062 0.0820312 0.625 0.125 L 0.375 0.375 L 0.3125 0.3125 L 0.5625 0.0625 C 0.582031 0.0390625 0.597656 0.0234375 0.609375 0.015625 C 0.617188 0.00390625 0.617188 -0.0078125 0.609375 -0.03125 C 0.609375 -0.0625 0.597656 -0.0859375 0.578125 -0.109375 C 0.546875 -0.140625 0.507812 -0.15625 0.46875 -0.15625 C 0.425781 -0.15625 0.378906 -0.128906 0.328125 -0.078125 L 0.125 0.125 Z M 0.0625 0.0625 "/></g></g><g transform="translate(4.567062, 4.984471)"><g><path d="M 0.0625 0.0625 L 0.4375 -0.3125 L 0.5 -0.25 L 0.4375 -0.1875 C 0.476562 -0.207031 0.515625 -0.210938 0.546875 -0.203125 C 0.578125 -0.191406 0.609375 -0.171875 0.640625 -0.140625 C 0.679688 -0.0976562 0.695312 -0.0507812 0.6875 0 C 0.6875 0.0390625 0.664062 0.0820312 0.625 0.125 L 0.375 0.375 L 0.3125 0.3125 L 0.5625 0.0625 C 0.582031 0.0390625 0.597656 0.0234375 0.609375 0.015625 C 0.617188 0.00390625 0.617188 -0.0078125 0.609375 -0.03125 C 0.609375 -0.0625 0.597656 -0.0859375 0.578125 -0.109375 C 0.546875 -0.140625 0.507812 -0.15625 0.46875 -0.15625 C 0.425781 -0.15625 0.378906 -0.128906 0.328125 -0.078125 L 0.125 0.125 Z M 0.0625 0.0625 "/></g></g><g transform="translate(5.005323, 5.422732)"><g><path d="M 0.546875 -0.359375 C 0.535156 -0.367188 0.53125 -0.378906 0.53125 -0.390625 C 0.53125 -0.398438 0.539062 -0.414062 0.5625 -0.4375 C 0.570312 -0.445312 0.582031 -0.453125 0.59375 -0.453125 C 0.601562 -0.453125 0.613281 -0.445312 0.625 -0.4375 C 0.632812 -0.425781 0.640625 -0.414062 0.640625 -0.40625 C 0.640625 -0.394531 0.632812 -0.382812 0.625 -0.375 C 0.601562 -0.351562 0.585938 -0.34375 0.578125 -0.34375 C 0.566406 -0.34375 0.554688 -0.347656 0.546875 -0.359375 Z M 0.0625 0.0625 L 0.4375 -0.3125 L 0.5 -0.25 L 0.125 0.125 Z M 0.0625 0.0625 "/></g></g><g transform="translate(5.194086, 5.611495)"><g><path d="M 0.3125 0.1875 L 0.296875 0.265625 C 0.285156 0.253906 0.265625 0.242188 0.234375 0.234375 C 0.210938 0.234375 0.191406 0.222656 0.171875 0.203125 C 0.109375 0.140625 0.113281 0.0703125 0.1875 0 L 0.421875 -0.234375 L 0.34375 -0.3125 L 0.40625 -0.375 L 0.484375 -0.296875 L 0.5625 -0.375 L 0.609375 -0.328125 L 0.53125 -0.25 L 0.65625 -0.125 L 0.59375 -0.0625 L 0.46875 -0.1875 L 0.25 0.03125 C 0.207031 0.0703125 0.207031 0.113281 0.25 0.15625 C 0.269531 0.175781 0.289062 0.1875 0.3125 0.1875 Z M 0.3125 0.1875 "/></g></g><g transform="translate(5.483959, 5.901369)"><g><path d="M 0.3125 0.1875 L 0.296875 0.265625 C 0.285156 0.253906 0.265625 0.242188 0.234375 0.234375 C 0.210938 0.234375 0.191406 0.222656 0.171875 0.203125 C 0.109375 0.140625 0.113281 0.0703125 0.1875 0 L 0.421875 -0.234375 L 0.34375 -0.3125 L 0.40625 -0.375 L 0.484375 -0.296875 L 0.5625 -0.375 L 0.609375 -0.328125 L 0.53125 -0.25 L 0.65625 -0.125 L 0.59375 -0.0625 L 0.46875 -0.1875 L 0.25 0.03125 C 0.207031 0.0703125 0.207031 0.113281 0.25 0.15625 C 0.269531 0.175781 0.289062 0.1875 0.3125 0.1875 Z M 0.3125 0.1875 "/></g></g><g transform="translate(5.773833, 6.191242)"><g><path d="M 0.15625 0.1875 C 0.125 0.15625 0.101562 0.125 0.09375 0.09375 C 0.09375 0.0703125 0.0859375 0.046875 0.078125 0.015625 C 0.078125 -0.00390625 0.078125 -0.0234375 0.078125 -0.046875 L 0.15625 -0.03125 C 0.164062 0 0.171875 0.0234375 0.171875 0.046875 C 0.171875 0.0664062 0.1875 0.09375 0.21875 0.125 C 0.25 0.15625 0.273438 0.171875 0.296875 0.171875 C 0.328125 0.179688 0.351562 0.175781 0.375 0.15625 C 0.382812 0.144531 0.390625 0.128906 0.390625 0.109375 C 0.390625 0.0859375 0.382812 0.0625 0.375 0.03125 L 0.3125 -0.03125 C 0.289062 -0.0703125 0.28125 -0.109375 0.28125 -0.140625 C 0.289062 -0.179688 0.304688 -0.210938 0.328125 -0.234375 C 0.347656 -0.253906 0.367188 -0.265625 0.390625 -0.265625 C 0.421875 -0.273438 0.445312 -0.273438 0.46875 -0.265625 C 0.5 -0.265625 0.53125 -0.25 0.5625 -0.21875 C 0.59375 -0.1875 0.613281 -0.15625 0.625 -0.125 C 0.632812 -0.09375 0.632812 -0.0625 0.625 -0.03125 L 0.578125 -0.015625 L 0.5625 -0.03125 C 0.5625 -0.0507812 0.554688 -0.0703125 0.546875 -0.09375 C 0.546875 -0.125 0.535156 -0.148438 0.515625 -0.171875 C 0.484375 -0.203125 0.457031 -0.21875 0.4375 -0.21875 C 0.414062 -0.21875 0.394531 -0.207031 0.375 -0.1875 C 0.363281 -0.175781 0.359375 -0.160156 0.359375 -0.140625 C 0.359375 -0.117188 0.367188 -0.0976562 0.390625 -0.078125 L 0.421875 0.015625 C 0.460938 0.0546875 0.476562 0.09375 0.46875 0.125 C 0.457031 0.15625 0.441406 0.179688 0.421875 0.203125 C 0.398438 0.222656 0.375 0.238281 0.34375 0.25 C 0.3125 0.257812 0.28125 0.257812 0.25 0.25 C 0.21875 0.238281 0.1875 0.21875 0.15625 0.1875 Z M 0.15625 0.1875 "/></g></g><g transform="translate(6.125822, 6.543231)"><g><path d="M 0.3125 0.1875 L 0.296875 0.265625 C 0.285156 0.253906 0.265625 0.242188 0.234375 0.234375 C 0.210938 0.234375 0.191406 0.222656 0.171875 0.203125 C 0.109375 0.140625 0.113281 0.0703125 0.1875 0 L 0.421875 -0.234375 L 0.34375 -0.3125 L 0.40625 -0.375 L 0.484375 -0.296875 L 0.5625 -0.375 L 0.609375 -0.328125 L 0.53125 -0.25 L 0.65625 -0.125 L 0.59375 -0.0625 L 0.46875 -0.1875 L 0.25 0.03125 C 0.207031 0.0703125 0.207031 0.113281 0.25 0.15625 C 0.269531 0.175781 0.289062 0.1875 0.3125 0.1875 Z M 0.3125 0.1875 "/></g></g></g></g><g fill="#4a6fa5" fill-opacity="1"><g transform="translate(6.411209, 6.828619)"><g><path d="M 0.53125 0.1875 L 0.265625 -0.078125 C 0.222656 -0.0351562 0.203125 0.00390625 0.203125 0.046875 C 0.210938 0.0976562 0.234375 0.140625 0.265625 0.171875 C 0.296875 0.203125 0.320312 0.21875 0.34375 0.21875 C 0.375 0.226562 0.394531 0.226562 0.40625 0.21875 L 0.421875 0.234375 L 0.4375 0.28125 C 0.414062 0.300781 0.378906 0.304688 0.328125 0.296875 C 0.285156 0.296875 0.242188 0.273438 0.203125 0.234375 C 0.171875 0.203125 0.148438 0.164062 0.140625 0.125 C 0.128906 0.0820312 0.128906 0.0390625 0.140625 0 C 0.160156 -0.0507812 0.191406 -0.0976562 0.234375 -0.140625 C 0.273438 -0.179688 0.316406 -0.207031 0.359375 -0.21875 C 0.410156 -0.238281 0.457031 -0.242188 0.5 -0.234375 C 0.539062 -0.222656 0.578125 -0.203125 0.609375 -0.171875 C 0.648438 -0.128906 0.671875 -0.078125 0.671875 -0.015625 C 0.679688 0.0351562 0.65625 0.09375 0.59375 0.15625 C 0.570312 0.175781 0.554688 0.191406 0.546875 0.203125 Z M 0.53125 0.09375 C 0.570312 0.0507812 0.59375 0.015625 0.59375 -0.015625 C 0.601562 -0.0546875 0.59375 -0.09375 0.5625 -0.125 C 0.53125 -0.15625 0.492188 -0.171875 0.453125 -0.171875 C 0.410156 -0.171875 0.363281 -0.15625 0.3125 -0.125 Z M 0.53125 0.09375 "/></g></g></g><g fill="#4a6fa5" fill-opacity="1"><g transform="translate(6.811166, 7.228575)"><g><path d="M 0.078125 0.078125 L 0.015625 0.015625 L 0.328125 -0.078125 L 0.390625 -0.359375 L 0.46875 -0.28125 L 0.40625 -0.0625 L 0.421875 -0.046875 L 0.65625 -0.09375 L 0.703125 -0.046875 L 0.421875 0.015625 L 0.34375 0.34375 L 0.28125 0.28125 L 0.34375 0 Z M 0.078125 0.078125 "/></g></g><g transform="translate(7.165915, 7.583325)"><g><path d="M 0.3125 0.1875 L 0.296875 0.265625 C 0.285156 0.253906 0.265625 0.242188 0.234375 0.234375 C 0.210938 0.234375 0.191406 0.222656 0.171875 0.203125 C 0.109375 0.140625 0.113281 0.0703125 0.1875 0 L 0.421875 -0.234375 L 0.34375 -0.3125 L 0.40625 -0.375 L 0.484375 -0.296875 L 0.5625 -0.375 L 0.609375 -0.328125 L 0.53125 -0.25 L 0.65625 -0.125 L 0.59375 -0.0625 L 0.46875 -0.1875 L 0.25 0.03125 C 0.207031 0.0703125 0.207031 0.113281 0.25 0.15625 C 0.269531 0.175781 0.289062 0.1875 0.3125 0.1875 Z M 0.3125 0.1875 "/></g></g></g></g></g></svg>