<svg xmlns="http://www.w3.org/2000/svg" viewBox="0 0 24 24" fill="none" stroke="currentColor" stroke-width="2" stroke-linecap="round" stroke-linejoin="round">
  <!-- Außenring mit 6 Zähnen -->
  <circle cx="12" cy="12" r="3"></circle>
  <path d="M12 2l1.2 2.5a8.5 8.5 0 0 1 3.3 1.4l2.6-1-0.7 2.7a8.5 8.5 0 0 1 1.4 3.3L22 12l-2.5 1.2a8.5 8.5 0 0 1-1.4 3.3l1 2.6-2.7-0.7a8.5 8.5 0 0 1-3.3 1.4L12 22l-1.2-2.5a8.5 8.5 0 0 1-3.3-1.4l-2.6 1 0.7-2.7a8.5 8.5 0 0 1-1.4-3.3L2 12l2.5-1.2a8.5 8.5 0 0 1 1.4-3.3l-1-2.6 2.7 0.7a8.5 8.5 0 0 1 3.3-1.4L12 2z"></path>
</svg>
